<?xml version="1.0" encoding="utf-8"?>
<!-- Generator: Adobe Illustrator 18.1.0, SVG Export Plug-In . SVG Version: 6.00 Build 0)  -->
<svg version="1.1" baseProfile="tiny" id="Layer_1" xmlns="http://www.w3.org/2000/svg" xmlns:xlink="http://www.w3.org/1999/xlink"
	 x="0px" y="0px" viewBox="0 0 12 5" xml:space="preserve">
<path fill-rule="evenodd" fill="#E0CD6E" d="M9.9,2.8c-1,0.8-1.9,0.8-3,0c-0.7-0.5-1.3-0.5-1.9,0c-1,0.8-1.9,0.8-2.9,0
	C1.5,2.2,1,2.2,0.3,2.8L0.1,2.4c0.8-0.6,1.5-0.7,2.4,0c0.8,0.6,1.4,0.7,2.3,0c0.9-0.7,1.7-0.6,2.5,0c0.8,0.7,1.5,0.7,2.4,0
	c0.9-0.7,1.4-0.7,2.3,0l-0.3,0.4C11,2.2,10.6,2.2,9.9,2.8z M9.9,1.4c-1,0.8-1.9,0.8-3,0c-0.7-0.5-1.3-0.5-1.9,0
	c-1,0.8-1.9,0.8-2.9,0C1.5,0.9,1,0.9,0.3,1.4L0.1,1c0.8-0.6,1.5-0.7,2.4,0c0.8,0.6,1.4,0.7,2.3,0c0.9-0.7,1.7-0.6,2.5,0
	c0.8,0.7,1.5,0.7,2.4,0c0.9-0.7,1.4-0.7,2.3,0l-0.3,0.4C11,0.9,10.6,0.9,9.9,1.4z M2.4,3.7c0.8,0.6,1.4,0.7,2.3,0
	c0.9-0.7,1.7-0.6,2.5,0c0.8,0.7,1.5,0.7,2.4,0c0.9-0.7,1.4-0.7,2.3,0l-0.3,0.4c-0.7-0.5-1-0.5-1.7,0c-1,0.8-1.9,0.8-3,0
	c-0.7-0.5-1.3-0.5-1.9,0c-1,0.8-1.9,0.8-2.9,0C1.5,3.6,1,3.6,0.3,4.1L0.1,3.7C0.9,3.1,1.6,3,2.4,3.7z"/>
</svg>
